<svg width="140" height="58" viewBox="0 0 140 58" fill="none" xmlns="http://www.w3.org/2000/svg">
<path fill-rule="evenodd" clip-rule="evenodd" d="M12.6161 57.5561L5.5378 53.7628C3.8666 52.8636 2.47094 51.538 1.49675 49.9244C0.522556 48.3109 0.00562232 46.4687 0 44.5906V28.4738H14.6081V56.3834C14.615 56.6166 14.5587 56.8474 14.445 57.0519C14.3312 57.2565 14.1642 57.4274 13.9611 57.5469C13.7581 57.6665 13.5263 57.7303 13.2899 57.732C13.0534 57.7336 12.8208 57.6729 12.6161 57.5561Z" fill="#6078FF"/>
<path fill-rule="evenodd" clip-rule="evenodd" d="M21.8126 37.5084L3.16066 42.0944C0 42.8872 0 44.1975 0 44.1975V17.7293C0.000448381 14.8073 0.990719 11.9694 2.81342 9.66647C4.63612 7.36356 7.18667 5.72783 10.0597 5.01926L30.2189 0.0400893C30.4182 -0.00970258 30.6264 -0.0131611 30.8273 0.0299859C31.0282 0.0731328 31.2162 0.161707 31.3765 0.288732C31.5368 0.415758 31.665 0.577766 31.751 0.761996C31.837 0.946227 31.8785 1.14765 31.8722 1.3504V24.818C31.8673 27.7366 30.875 30.57 29.0527 32.8689C27.2303 35.1678 24.6823 36.8006 21.8126 37.5084Z" fill="url(#paint0_linear_2_9)"/>
<path d="M64.6117 17.0662C63.7649 17.1616 61.7924 17.505 61.0611 17.6863C59.3099 18.1156 58.8866 18.2683 58.8385 18.4782C58.8192 18.5926 58.213 23.4392 57.4914 29.2684C56.7794 35.0976 56.1732 39.9537 56.1539 40.0777L56.1251 40.2876L58.8288 40.2685L61.5326 40.2399L61.9271 37.1679C62.1388 35.4697 62.3312 34.0673 62.3601 34.0482C62.3794 34.0291 62.6391 34.0482 62.9278 34.0959C64.3904 34.3058 66.2185 34.1436 67.5945 33.6952C70.991 32.5789 72.9539 29.5451 73.4158 24.6699C73.6082 22.7427 73.2907 20.911 72.569 19.6898C72.1553 18.9838 71.2989 18.211 70.5196 17.8294C69.3264 17.2474 68.4989 17.0853 66.6323 17.0566C65.7374 17.0375 64.8233 17.0471 64.6117 17.0662ZM66.4302 21.2258C66.9979 21.3975 67.5945 22.0272 67.7773 22.6473C67.9986 23.382 67.9794 25.0038 67.7292 26.1964C67.2866 28.3907 66.2185 29.7168 64.7271 29.9362C64.2556 30.0126 63.1491 29.9267 62.9567 29.8122C62.8797 29.7645 62.9855 28.6197 63.3704 25.5572C63.6495 23.2484 63.9093 21.3498 63.9381 21.3212C64.1402 21.1209 65.8529 21.0541 66.4302 21.2258Z" fill="#6078FF"/>
<path d="M81.9794 17.1997C79.3045 17.7626 77.4763 19.1746 76.2254 21.636C75.0804 23.9067 74.734 27.637 75.4557 29.9839C76.0811 32.0161 77.4763 33.2945 79.7278 33.9146C80.3821 34.0959 80.7478 34.1245 82.3643 34.1245C83.7594 34.134 84.4715 34.0863 85.1546 33.9623C86.2804 33.7524 88.0701 33.3231 88.2433 33.2181C88.3491 33.1609 88.3876 32.703 88.4069 31.2337L88.4357 29.3352L87.8969 29.5165C87.0405 29.7931 85.9917 29.9839 84.7794 30.0793C82.345 30.2606 81.123 29.8217 80.5649 28.5624C80.4783 28.3525 80.4014 27.8183 80.3629 27.1886L80.3148 26.1678H84.7986H89.2728L89.4268 25.7766C89.7155 25.0706 89.9656 23.8494 90.0234 22.8763C90.1773 20.4721 89.2247 18.564 87.435 17.6958C86.0783 17.0375 83.7402 16.8181 81.9794 17.1997ZM84.2405 20.7392C84.7216 20.8728 85.2027 21.3498 85.3375 21.8268C85.3952 22.0367 85.4433 22.4756 85.4433 22.8V23.401H83.1821C80.5938 23.401 80.7574 23.4678 81.1134 22.5042C81.3924 21.7887 81.8062 21.2449 82.2873 21.0064C83.0089 20.6438 83.5863 20.558 84.2405 20.7392Z" fill="#6078FF"/>
<path d="M129.32 17.152C128.184 17.3142 127.251 17.5336 126.029 17.9248C125.124 18.211 124.99 18.2873 124.99 18.4686C124.99 18.5831 125.076 19.3845 125.182 20.2527C125.288 21.1208 125.375 21.8555 125.375 21.8936C125.375 21.9318 125.557 21.8936 125.779 21.8173C126.568 21.5502 128.386 21.283 129.56 21.2735C130.888 21.2639 131.311 21.388 131.638 21.8936C131.812 22.1798 131.831 22.3039 131.783 23.2484C131.764 23.8112 131.715 24.2978 131.696 24.3169C131.677 24.336 131.34 24.2883 130.946 24.2024C129.839 23.9639 127.761 23.983 126.702 24.2406C123.883 24.9275 122.199 27.0645 122.199 29.9458C122.199 31.9779 123.296 33.304 125.471 33.886C127.982 34.5633 131.85 34.3248 135.074 33.304C135.564 33.1514 135.988 32.9701 136.007 32.9128C136.036 32.8461 136.344 30.48 136.69 27.6465C137.21 23.4201 137.315 22.3325 137.277 21.5883C137.133 19.0696 135.939 17.6672 133.457 17.1425C132.687 16.9803 130.455 16.9803 129.32 17.152ZM130.917 27.1313C131.34 27.2363 131.35 27.2554 131.311 27.5416C131.282 27.7038 131.186 28.467 131.09 29.2398L130.926 30.6518L130.58 30.7472C130.388 30.7949 129.868 30.8426 129.416 30.8426C127.963 30.8426 127.328 30.3083 127.434 29.1825C127.53 28.2094 128.165 27.3698 128.992 27.1218C129.397 27.0073 130.416 27.0073 130.917 27.1313Z" fill="#6078FF"/>
<path d="M91.1203 17.3142C91.1203 17.3333 91.8034 21.035 92.6405 25.5476L94.1608 33.7524L94.7093 33.781C95.0076 33.8001 95.2577 33.8383 95.2577 33.8669C95.2577 33.9051 95.0845 34.2199 94.8825 34.5633C93.8337 36.3092 92.1595 36.9294 90.3024 36.252C89.9368 36.1089 89.6289 36.0135 89.6192 36.023C89.6 36.0326 89.3979 36.834 89.1478 37.8071C88.9072 38.7802 88.6859 39.6484 88.657 39.7343C88.6186 39.8678 88.7533 39.9442 89.3691 40.135C91.4763 40.7933 93.7278 40.6502 95.479 39.7438C96.4027 39.2668 97.7306 37.9693 98.5292 36.7576C99.501 35.298 100.319 33.533 103.869 25.2423C105.726 20.9205 107.256 17.3905 107.285 17.3905C107.314 17.3905 107.978 20.8823 108.767 25.1374C109.546 29.402 110.23 33.0941 110.287 33.3422L110.383 33.8001H110.903C111.192 33.8001 111.423 33.8192 111.423 33.8478C111.423 34.0672 110.826 34.9831 110.393 35.4315C109.373 36.5001 108.065 36.7767 106.535 36.2615C106.15 36.128 105.823 36.0517 105.803 36.0803C105.688 36.2997 104.86 39.7247 104.909 39.8297C104.976 40.03 106.236 40.3735 107.314 40.4975C109.065 40.6979 110.768 40.3258 112.125 39.4671C113.53 38.5608 114.858 36.8435 116.089 34.3248C116.599 33.2945 122.94 18.6594 123.421 17.4192C123.46 17.3237 122.902 17.2951 120.794 17.2951H118.11L116.388 22.1894C115.445 24.8702 114.55 27.3698 114.415 27.7419L114.175 28.4098L113.482 23.3533C113.097 20.5675 112.76 18.0679 112.722 17.7912L112.664 17.2951H107.295H101.926L100.752 20.6057C100.107 22.4374 99.222 24.9275 98.789 26.1487C98.0962 28.0949 97.9904 28.3334 97.9423 28.0568C97.9038 27.885 97.5574 25.395 97.1725 22.5233L96.4605 17.2951H93.7952C92.323 17.2951 91.1203 17.3047 91.1203 17.3142Z" fill="#6078FF"/>
<defs>
<linearGradient id="paint0_linear_2_9" x1="0" y1="22.1058" x2="31.8722" y2="22.1058" gradientUnits="userSpaceOnUse">
<stop stop-color="#D7D8F9"/>
<stop offset="0.59" stop-color="#F0F0FE"/>
<stop offset="1" stop-color="#F0F0FE"/>
</linearGradient>
</defs>
</svg>
